<svg xmlns="http://www.w3.org/2000/svg" xml:space="preserve" viewBox="0 0 500 500"><path d="M412.2 174.8c0-6.1-1.3-11.6-4-16.2q-3.9-6.9-11.7-11.4L266.9 72.5c-11.6-6.7-22.9-6.5-34.5.3-17.2 10.1-103.3 59.5-128.9 74.4-10.6 6.1-15.7 15.5-15.7 27.7v150.4c0 6 1.3 11.3 3.8 15.9 2.6 4.7 6.6 8.7 11.9 11.8 25.7 14.9 111.7 64.2 128.9 74.4 11.6 6.8 22.8 7.1 34.5.3 43.2-25 86.4-49.8 129.6-74.7 5.4-3.1 9.3-7 11.9-11.8 2.5-4.6 3.8-9.9 3.8-15.9z" style="fill:#a9b9cb"/><path d="M266.6 72.7c-11.6-6.7-22.9-6.5-34.4.3-17.2 10.1-103.1 59.4-128.7 74.2-10.5 6.1-15.7 15.4-15.7 27.6v150c0 6 1.3 11.3 3.8 15.9 2.6 4.7 6.6 8.6 11.9 11.7 5.9 3.4 14.9 8.6 25.5 14.7L366.1 130c-33.2-19-66.3-38.1-99.5-57.3" style="fill:#7f8b99"/><path d="m283.5 227.1 50.5.4c0-21-21.3-72.6-82.3-72.6-38.9 0-91.2 24.7-91.2 95.8s51.3 94.3 91.2 94.3c64.7 0 80.1-44.7 80.1-70l-48.2-2.8s1.3 29.2-32.2 29.2c-30.9 0-36.1-37.9-36.1-50.7 0-19.6 7-51 36.1-51 29.1.1 32.1 27.4 32.1 27.4" style="fill:#fff"/></svg>