<svg xmlns="http://www.w3.org/2000/svg" xml:space="preserve" id="Layer_1" x="0" y="0" viewBox="-393 31 500 500"><style>.st0{fill:#f6d2a2}.st2{fill:#fff}</style><g id="XMLID_52_"><path id="XMLID_54_" d="M-273.5 296.1c.5 10.8 11.3 5.8 16.1 2.4 4.6-3.2 6-.5 6.4-6.8.3-4.2.7-8.3.5-12.5-7-.6-14.6 1-20.3 5.2-3 2.2-8.5 9.1-2.7 11.7" class="st0"/><path id="XMLID_55_" d="M-58.6 428.7c8.3 5.1 23.5 20.6 11 28.2-11.9 10.9-18.6-12-29.1-15.2 4.5-6.2 10.2-11.9 18.1-13" class="st0"/><path id="XMLID_56_" d="M-206.6 446.1c-9.7 1.5-15.2 10.3-23.4 14.8-7.6 4.5-10.6-1.5-11.2-2.7-1.2-.5-1 .5-2.9-1.4-7.1-11.2 7.3-19.4 14.9-24.9 10.4-2.1 17 7 22.6 14.2" class="st0"/><path id="XMLID_57_" d="M-12.6 294.7c-.5 10.8-11.3 5.8-16.1 2.4-4.6-3.2-6-.5-6.4-6.8-.3-4.2-.7-8.3-.5-12.5 7-.6 14.6 1 20.3 5.2 2.9 2.2 8.5 9.1 2.7 11.7" class="st0"/><path id="XMLID_58_" d="M-41.2 163.2C-3.8 150-33 98.8-65.6 121.4c-21.4-18.3-50.8-21.7-81.7-21.7-30.3 2.4-59.1 8-79.2 25.5-32.5-20.9-62.4 29.3-24.3 42-10.7 41.5 1.5 83.8-.2 126-1.6 37.9-11.5 88.7 9.5 122.7 17.9 29.1 56.4 39.5 88.2 40.6 40.5 1.5 89.6-8.5 109.3-47.7 18.8-37.4 13.6-84 11.2-124.3-2.3-40.7 2.2-82-8.4-121.3" style="fill:#69d7e2"/><path id="XMLID_67_" d="M-9.8 288.3c-1-2.2-3-4.7-4.9-6.1-4.8-3.5-11-5.3-17.4-5.5-.2-6.5-.4-13.6-.4-22.6v-8.2c-.1-25.8-.4-37.1-1.9-51.2-1.2-11.1-2.9-21.4-5.4-31 8.5-3.2 14-8.6 16.2-15.5 2.1-6.4 1-13.6-2.5-20-3.7-6.3-9.5-11-16.3-12.9-7.3-2-15.3-.5-22.9 4.6-6.8-5.8-14.7-10.2-23.5-13.5-15.6-5.8-33.7-8-58.3-8v1l-.1-1c-26.3 2.1-45.8 6.2-61.9 14-6.5 3.1-12.3 6.9-17.3 11.3-7.7-4.8-15.8-6-23.2-3.7-6.9 2.1-12.9 7-16.4 13.4-3.6 6.4-4.4 13.7-2 20s8 11.2 16.2 14.2c-2.6 10.6-4 21.8-4.2 34.1-.2 12 .3 21.7 2.2 43.5 1.4 16.2 1.9 23.7 2.1 32.7-7.1-.3-14.2 1.6-19.6 5.4-1.9 1.4-4 3.8-4.9 6.1-1.4 2.9-.8 5.5 1.9 7.1.4 5 3.2 7.3 7.5 6.9 3.1-.3 6.9-2 10.2-4.3.7-.5 1.5-.9 2.2-1.3.3-.1.5-.2.8-.3 0 0 .6-.2.8-.3.3-.1.6-.2.8-.4-.2 4.9-.6 10.1-1.6 21.8-1 13.2-1.6 20.4-1.8 28.5-.9 29.9 2.6 51.7 13.3 69 3.4 5.4 7.4 10.3 12.3 14.7-.9.6-4.9 3.6-6.2 4.5-4.4 3.4-7.4 6.2-9.2 9.3-2.3 4.1-2.3 8.2.3 12.5l.1.1.1.1c1.2 1.2 1.8 1.5 2.6 1.5h.3c.1.2.2.3.3.5.3.5.6.9.9 1.4 2.6 3 6.3 3.8 11.2.8 2.6-1.4 4.5-2.9 8.5-6.3l.2-.2c6.4-5.4 9.5-7.4 14.2-8.2l1.7-.3c.6.3 1.3.5 2 .8 14.9 6 32.1 9.2 49.6 9.8 22.6.8 44.4-2 62.8-8.7 4.9-1.8 9.5-3.9 13.9-6.2 2.7 1 5 3.2 9.4 8.4.2.2.2.2.3.4.2.2.2.3.3.4.2.3.5.5.7.8 3.5 4.1 5.8 6.1 8.4 7.2 3.5 1.5 6.8.7 10.3-2.4 6.1-3.8 6.5-9.6 2.5-16.3-2.8-4.7-7.7-9.6-12.4-12.8 5.4-5.3 10.2-11.7 13.8-19 10.1-20.1 13.9-43.6 13.7-73.7-.1-10.7-.5-20-1.7-37.8v-.5c.5.2 1 .5 1.6.9 3.2 2.2 7 4 10.2 4.3 4.3.4 7.1-1.9 7.5-6.9 3-1.3 3.5-3.9 2.1-6.9m-33.3-170.7c6.3 1.7 11.7 6.1 15.1 11.9 3.4 5.9 4.3 12.5 2.4 18.3-2 6.2-7 11.1-14.9 14-1.6-5.7-3.5-11.2-5.5-16.5 3-2.6 4.5-5.9 2.1-10.5s-6.6-5.1-10.9-3.8c-2.7-3.6-5.8-6.7-8.9-9.6 6.9-4.4 14-5.6 20.6-3.8M-266.3 153c-2.2-5.7-1.5-12.4 1.9-18.2 3.4-5.9 8.8-10.5 15.3-12.4 6.7-2 13.9-1 21 3.1-4.1 3.7-7.7 7.9-10.9 12.5-5.4-2.8-11-3.4-14.1 2.4-3.2 6.2.5 10.1 5.9 13-.7 1.8-1.5 3.7-2.1 5.5-.7 2.3-1.5 4.7-2.1 7.1-7.7-2.9-12.7-7.4-14.9-13m12.7 142.7c-.1 0-.7.2-.7.3-.3.1-.6.2-.9.4-.8.3-1.7.8-2.5 1.5-2.9 2.1-6.5 3.7-9.2 3.9-3.1.3-4.9-1-5.2-4.8 2.2-.7 3.1-1.3 4-2.5l-1.7-1.3c-.6.8-1.3 1.2-3.1 1.8-.1 0-.1 0-.2.1-1.7-.9-2-2.4-1-4.5.8-1.9 2.7-4.1 4.3-5.2 5-3.7 11.7-5.4 18.4-5 0 2.6.1 5.2 0 7.7 0 .3 0 .5-.1.8-.1 1.5-.1 2.1-.2 2.8-.6 3-.8 3.4-1.9 4m31.6 158-.2.2c-3.9 3.4-5.8 4.7-8.2 6.1-4 2.4-6.7 1.9-8.6-.4-.3-.3-.5-.7-.7-1-.1-.1-.2-.3-.3-.4v-.1c.2-1.9.9-3.2 2.8-6.2.1-.1.1-.1.1-.2 1.2-1.7 1.7-2.6 2.2-3.8l-1.9-.8c-.4.9-.9 1.8-2 3.5-.1.1-.1.1-.1.2-1.9 2.7-2.7 4.4-3.1 6.3h-.4c-.2-.1-.5-.3-.9-.7-4.1-6.5-.8-12 8.4-19 1.2-.8 5-3.6 6.1-4.4.2 0 .4-.1.6-.2 5.7 4.8 12.3 9 19.6 12.5 0 .1.1.2.2.3-4.4.9-7.7 3.1-13.6 8.1m175.8-11.4c3.2 5.4 3.1 9.8-.9 12.9-.3-.6-.5-1.4-.9-2.4 0-.1 0-.1-.1-.2-1.5-4-2.4-5.7-4.2-7.5l-1.5 1.5c1.6 1.5 2.3 3 3.8 6.7 0 .1 0 .1.1.2.5 1.4.8 2.2 1.2 2.9-2.7 2.3-5.1 2.7-7.6 1.6-2.2-.9-4.3-2.9-7.6-6.7-.2-.2-.4-.5-.6-.8-.1-.1-.2-.2-.3-.4-.2-.2-.2-.2-.3-.4-3.9-4.5-6.2-6.9-8.7-8.3 5.9-3.4 11.1-7.1 15.8-11.5 4.2 3.1 9.1 7.9 11.8 12.4m1.5-34c-9 18.1-24.9 30.9-46.3 38.6-18.2 6.6-39.8 9.3-62.1 8.5-38.4-1.4-71.7-14.8-87.3-40.1-10.5-16.9-13.9-38.3-13-67.9.3-8.1.7-15.3 1.8-28.5 1.2-14.9 1.5-19.2 1.8-25.9.2-4.8.2-9.7.1-15-.2-9.2-.7-16.5-2.1-33-1.9-21.8-2.4-31.3-2.2-43.2.3-15.7 2.4-29.5 6.8-42.6 7.1-21.3 20.2-35.6 39.1-44.9 15.8-7.7 35-11.7 61-13.8 24.4 0 42.2 2.2 57.6 7.9 18.4 6.8 32.1 18.7 41.6 37.1 6.1 14.9 9.6 30.9 11.5 49.3 1.5 14 1.8 25.3 1.9 51v8.2c.1 12.7.3 21.6.8 30.5.2 3.5.3 4.9.8 13.2 1.2 17.8 1.6 27 1.7 37.7.2 30-3.6 53.2-13.5 72.9m32-114.6c-.1 0-.2-.1-.3-.1-1.9-.6-2.5-1-3.1-1.8l-1.7 1.3c.9 1.3 1.9 1.8 4 2.5-.4 3.8-2.2 5.1-5.2 4.8-2.7-.2-6.3-1.9-9.2-3.9-.8-.6-1.7-1-2.5-1.5-.1 0-.2-.1-.3-.1-.4-5.8-.4-7.2-.6-10.3l-.3-5.7c5.9.1 11.6 1.9 16 5.1 1.6 1.2 3.5 3.4 4.3 5.2.9 2 .7 3.5-1.1 4.5"/><path id="XMLID_68_" d="M-131.4 207.7c.1 5.3 1.2 11.2.2 16.9-1.5 2.7-4.2 3-6.6 4.1-3.4-.5-6.2-2.7-7.5-5.9-.8-6.4.2-12.5.5-18.8 0-.2 4 .1 7.5 1.2 3.1.9 5.9 2.4 5.9 2.5" class="st2"/><path id="XMLID_69_" d="M-161 208.2c-2.9 11.1 3.9 29.2 15.1 14.3-.8-6.3.1-12.4.4-18.5.1-.5-15.4 3.4-15.5 4.2" class="st2"/><path id="XMLID_73_" d="M-130.1 212.7c-.2-3.1-.3-4.4-.3-6v-.7l-.7-.2-13.2-4.1v-.7l-1.4.3h-.1v.1l-14.9 3.8-.5.1-.2.5c-2.3 5.5-1.8 13.9 1.2 19.1 3.4 5.9 8.8 6 14.3-.7 1.6 3 4.5 5.1 7.9 5.7h.3l.3-.1c.4-.2.8-.3 1.6-.6.1 0 .1 0 .2-.1 3-1 4.3-1.9 5.3-3.9l.1-.1v-.2c.3-1.9.4-3.9.4-6.1 0-1.7-.1-3.2-.3-6.1m-16.8-3.9c-.1 1.9-.2 2.6-.3 3.7-.2 3.9-.2 6.8.1 9.7-4.9 6.3-8.8 6.3-11.4 1.6-2.5-4.4-3-11.8-1.2-16.8l13.2-3.4c-.1 1.4-.2 2.8-.4 5.2m14.7 15.5c-.7 1.3-1.7 1.9-4.2 2.7-.1 0-.1 0-.2.1-.6.2-1 .4-1.4.5-2.8-.5-5.2-2.4-6.4-5-.3-2.8-.3-5.8-.1-9.6.1-1 .1-1.8.3-3.7.2-2.4.3-3.9.3-5.2l11.4 3.5c0 1.4.1 2.6.3 5.3.2 2.8.3 4.3.3 6q.15 2.85-.3 5.4"/><path id="XMLID_74_" d="M-224 162.1c9.6 37.5 69.6 27.9 67.3-9.7-2.7-45-76.5-36.3-67.3 9.7" class="st2"/><path id="XMLID_77_" d="M-155.7 152.3c-.6-10.9-5.4-19.4-13.4-24.7-7.1-4.8-16.5-6.7-25.9-5.5-9.3 1.3-17.9 5.4-23.6 12-6.3 7.3-8.7 17-6.5 28.1l.9-.2-.9.2c10 38.5 71.7 29.1 69.4-9.9m-67.4 9.6c-2.1-10.6.2-19.6 6.1-26.4 5.3-6.2 13.4-10.3 22.3-11.4 8.9-1.2 17.8.6 24.5 5.2 7.4 5 11.9 12.9 12.6 23.2 2.2 36.6-56.2 45.4-65.5 9.4"/><ellipse id="XMLID_78_" cx="-207.5" cy="155.9" rx="10.2" ry="11"/><ellipse id="XMLID_79_" cx="-202.9" cy="158.5" class="st2" rx="2.4" ry="2.8"/><path id="XMLID_80_" d="M-139.9 155.1c7.4 43 77.8 31.6 67.6-11.7-9.1-39-70.1-28.2-67.6 11.7" class="st2"/><path id="XMLID_83_" d="M-71.3 143.2c-9.3-40.1-72.1-29.1-69.6 12v.1c3.5 20.3 21.6 30.7 41.6 27.3 9.1-1.6 17.3-6 22.6-12.5 5.8-7.1 7.9-16.4 5.4-26.9m-7 25.7c-5 6.1-12.7 10.3-21.4 11.7-19 3.1-35.9-6.6-39.3-25.7-2.3-38.7 57-49.1 65.8-11.4 2.3 10 .4 18.7-5.1 25.4"/><ellipse id="XMLID_84_" cx="-122.6" cy="153.2" rx="9.9" ry="11"/><ellipse id="XMLID_85_" cx="-118" cy="155.7" class="st2" rx="2.3" ry="2.8"/><path id="XMLID_86_" d="M-158.8 185.5c-8.3.7-15 10.5-10.7 18.2 5.7 10.3 18.3-.9 26.2.1 9.1.2 16.5 9.6 23.8 1.7 8.1-8.8-3.5-17.4-12.6-21.2z" class="st0"/><path id="XMLID_89_" d="M-118.5 192.6c-2.8-3.6-7.7-6.8-13.1-9l-.2-.1h-.2l-26.8 1c-9.3.8-16 11.6-11.5 19.8 1.8 3.1 4.2 4.7 7.4 4.9 2.4.1 4.9-.4 8.8-1.8.3-.1.7-.2 1.3-.4 5.2-1.8 7.3-2.3 9.4-2h.1c2.5 0 4.6.7 8.6 2.3 4.4 1.8 5.8 2.3 8 2.5 3 .2 5.7-.8 8.1-3.5 3.9-4.4 3.7-9.2.1-13.7m-1.8 12.3c-2 2.2-4 2.9-6.4 2.8-1.9-.1-3.1-.6-7.3-2.3-4.2-1.8-6.5-2.4-9.2-2.5-2.6-.3-4.8.2-10.4 2.1-.5.2-.9.3-1.3.4-7.6 2.6-11.3 2.4-13.8-2.2-3.8-6.8 2-16 9.8-16.8l26.5-1c5 2.1 9.5 5.1 12.1 8.4 3.2 3.8 3.3 7.6 0 11.1" style="fill:#231f20"/><path id="XMLID_90_" d="M-130 181c-3.2-11.9-30.5-10.2-29.8 4.1 1.3 10.6 32.9 7.8 29.8-4.1"/></g></svg>