<svg xmlns="http://www.w3.org/2000/svg" xml:space="preserve" id="Layer_1" x="0" y="0" viewBox="0 0 500 500"><style>.st0{fill:#0074bd}.st1{fill:#ea2d2e}</style><g id="XMLID_1_"><path id="XMLID_16_" d="M216.3 261.3s-9.7 5.6 6.9 7.5c20.1 2.3 30.4 2 52.5-2.2 0 0 5.8 3.7 14 6.8-49.7 21.3-112.4-1.2-73.4-12.1" class="st0"/><path id="XMLID_15_" d="M210.2 233.5s-10.9 8.1 5.7 9.8c21.5 2.2 38.4 2.4 67.8-3.3 0 0 4.1 4.1 10.4 6.4-59.9 17.5-126.8 1.3-83.9-12.9" class="st0"/><path id="XMLID_14_" d="M261.4 186.3c12.2 14.1-3.2 26.8-3.2 26.8s31.1-16 16.8-36.1c-13.3-18.7-23.6-28 31.8-60.1 0-.1-86.9 21.6-45.4 69.4" class="st1"/><path id="XMLID_13_" d="M327.1 281.8s7.2 5.9-7.9 10.5c-28.7 8.7-119.4 11.3-144.5.3-9-3.9 7.9-9.4 13.3-10.6 5.6-1.2 8.7-1 8.7-1-10.1-7.1-65.1 13.9-27.9 20 101.2 16.5 184.6-7.3 158.3-19.2" class="st0"/><path id="XMLID_12_" d="M221 204.7s-46.1 11-16.3 14.9c12.6 1.7 37.6 1.3 61-.7 19.1-1.6 38.3-5 38.3-5s-6.7 2.9-11.6 6.2c-46.8 12.3-137.3 6.6-111.3-6 22-10.6 39.9-9.4 39.9-9.4" class="st0"/><path id="XMLID_11_" d="M303.7 250.9c47.6-24.7 25.6-48.5 10.2-45.3-3.8.8-5.4 1.5-5.4 1.5s1.4-2.2 4.1-3.1c30.4-10.7 53.8 31.5-9.8 48.2 0 0 .7-.7.9-1.3" class="st0"/><path id="XMLID_10_" d="M275 65s26.4 26.4-25 66.9c-41.2 32.5-9.4 51.1 0 72.3-24.1-21.7-41.7-40.8-29.9-58.6 17.4-26 65.5-38.7 54.9-80.6" class="st1"/><path id="XMLID_9_" d="M225.6 318c45.7 2.9 115.9-1.6 117.6-23.3 0 0-3.2 8.2-37.8 14.7-39 7.3-87.1 6.5-115.7 1.8.1 0 5.9 4.9 35.9 6.8" class="st0"/><path d="M341.1 356.8h-1.4v-.8h3.7v.8H342v3.9h-1zm7.5.2-1.4 3.7h-.6l-1.4-3.7v3.7h-.9V356h1.3l1.3 3.3 1.3-3.3h1.3v4.7h-.9zM218.2 400.6c-4.3 3.7-8.9 5.8-13 5.8-5.8 0-9-3.5-9-9.1 0-6.1 3.4-10.5 16.9-10.5h5v13.8zm11.9 13.4v-41.5c0-10.6-6.1-17.6-20.6-17.6-8.5 0-16 2.1-22.1 4.8l1.7 7.4c4.8-1.8 11-3.4 17-3.4 8.4 0 12 3.4 12 10.4v5.3H214c-20.4 0-29.6 7.9-29.6 19.8 0 10.3 6.1 16.1 17.5 16.1 7.3 0 12.8-3 18-7.5l.9 6.3h9.3z" class="st1"/><path id="XMLID_4_" d="M269.8 414H255l-17.9-58.1h13l11.1 35.7 2.5 10.7c5.6-15.5 9.6-31.3 11.5-46.4h12.6c-3.5 19.2-9.5 40.2-18 58.1" class="st1"/><path d="M326.7 400.6c-4.3 3.7-8.9 5.8-13 5.8-5.8 0-9-3.5-9-9.1 0-6.1 3.4-10.5 16.9-10.5h5zm11.9 13.4v-41.5c0-10.6-6.1-17.6-20.7-17.6-8.5 0-16 2.1-22.1 4.8l1.7 7.4c4.8-1.8 11-3.4 17-3.4 8.4 0 12 3.4 12 10.4v5.3h-4.2c-20.4 0-29.6 7.9-29.6 19.8 0 10.3 6.1 16.1 17.5 16.1 7.4 0 12.8-3 18-7.5l.9 6.3h9.5z" class="st1"/><path id="XMLID_2_" d="M171.3 423.9c-3.4 5-8.9 8.9-14.9 11.1l-5.9-6.9c4.6-2.3 8.5-6.1 10.3-9.6 1.6-3.1 2.2-7.2 2.2-16.8v-66.3h12.6v65.4c.1 12.8-.9 18-4.3 23.1" class="st1"/></g></svg>