<svg xmlns="http://www.w3.org/2000/svg" xml:space="preserve" width="144" height="144" viewBox="19 19 106 106"><path d="m123.617 70.716-4.394-2.72a60 60 0 0 0-.125-1.28l3.776-3.522c.384-.358.556-.888.452-1.401a1.5 1.5 0 0 0-.953-1.122l-4.827-1.805a56 56 0 0 0-.378-1.246l3.011-4.182a1.512 1.512 0 0 0-.984-2.377l-5.09-.828a43 43 0 0 0-.612-1.143l2.139-4.695a1.5 1.5 0 0 0-.118-1.468 1.5 1.5 0 0 0-1.31-.671l-5.166.18a41 41 0 0 0-.816-.99l1.187-5.032a1.512 1.512 0 0 0-1.819-1.82l-5.031 1.186a43 43 0 0 0-.992-.816l.181-5.166a1.51 1.51 0 0 0-2.138-1.429l-4.694 2.14a55 55 0 0 0-1.143-.613l-.83-5.091a1.513 1.513 0 0 0-2.376-.984l-4.185 3.011a46 46 0 0 0-1.244-.377l-1.805-4.828a1.51 1.51 0 0 0-2.522-.503l-3.522 3.779q-.638-.072-1.28-.125l-2.72-4.395a1.512 1.512 0 0 0-2.571 0l-2.72 4.395q-.643.053-1.281.125l-3.523-3.779a1.51 1.51 0 0 0-2.522.503l-1.805 4.828q-.626.181-1.245.377l-4.184-3.011a1.515 1.515 0 0 0-2.377.984l-.83 5.091q-.575.299-1.143.613l-4.694-2.14a1.51 1.51 0 0 0-1.467.119c-.436.29-.691.787-.671 1.31l.18 5.166q-.501.401-.992.816l-5.031-1.186a1.52 1.52 0 0 0-1.417.403 1.51 1.51 0 0 0-.403 1.417l1.185 5.032a49 49 0 0 0-.814.99l-5.166-.18a1.511 1.511 0 0 0-1.429 2.139l2.14 4.695a46 46 0 0 0-.613 1.143l-5.09.828a1.513 1.513 0 0 0-.984 2.377l3.011 4.182q-.197.62-.378 1.246l-4.828 1.805a1.51 1.51 0 0 0-.501 2.523l3.777 3.522q-.07.638-.125 1.28l-4.394 2.72a1.51 1.51 0 0 0 0 2.571l4.394 2.72q.054.642.125 1.28l-3.777 3.523a1.512 1.512 0 0 0 .501 2.522l4.828 1.805q.18.627.378 1.246l-3.011 4.183a1.51 1.51 0 0 0 .985 2.376l5.089.828q.298.578.613 1.145l-2.14 4.693a1.51 1.51 0 0 0 .119 1.468c.292.437.789.692 1.31.671l5.164-.181q.403.503.816.992l-1.185 5.033c-.12.51.031 1.043.403 1.414.369.373.906.522 1.417.402l5.031-1.185q.49.416.992.814l-.18 5.167a1.51 1.51 0 0 0 2.138 1.428l4.694-2.139q.566.315 1.143.613l.83 5.088a1.515 1.515 0 0 0 2.377.986l4.182-3.013a47 47 0 0 0 1.246.379l1.805 4.826c.183.49.607.853 1.122.953a1.5 1.5 0 0 0 1.4-.452l3.523-3.777q.638.072 1.281.128l2.72 4.394a1.513 1.513 0 0 0 2.571 0l2.72-4.394a49 49 0 0 0 1.28-.128l3.522 3.777c.357.384.887.556 1.4.452a1.51 1.51 0 0 0 1.122-.953l1.805-4.826a47 47 0 0 0 1.246-.379l4.183 3.013a1.513 1.513 0 0 0 2.376-.986l.83-5.088q.575-.3 1.143-.613l4.694 2.139a1.51 1.51 0 0 0 2.138-1.428l-.18-5.167q.502-.399.991-.814l5.031 1.185a1.5 1.5 0 0 0 1.416-.402c.372-.371.523-.904.403-1.414l-1.185-5.033q.415-.49.814-.992l5.166.181a1.5 1.5 0 0 0 1.31-.671c.292-.436.337-.991.118-1.468l-2.139-4.693q.314-.567.612-1.145l5.09-.828a1.511 1.511 0 0 0 .984-2.376l-3.011-4.183q.196-.62.378-1.246l4.827-1.805c.491-.184.853-.607.953-1.122a1.5 1.5 0 0 0-.452-1.4l-3.776-3.523q.07-.638.125-1.28l4.394-2.72a1.51 1.51 0 0 0 .001-2.571m-29.409 36.451a3.114 3.114 0 0 1-2.385-3.699 3.104 3.104 0 0 1 3.689-2.389 3.11 3.11 0 0 1 2.387 3.696 3.11 3.11 0 0 1-3.691 2.392m-1.493-10.098a2.833 2.833 0 0 0-3.365 2.18l-1.56 7.28A38.1 38.1 0 0 1 72 109.928a38.1 38.1 0 0 1-16.121-3.552l-1.559-7.28a2.83 2.83 0 0 0-3.364-2.179l-6.427 1.38a38 38 0 0 1-3.323-3.917h31.272c.354 0 .59-.064.59-.386V82.932c0-.322-.236-.386-.59-.386h-9.146v-7.012h9.892c.903 0 4.828.258 6.083 5.275.393 1.543 1.256 6.562 1.846 8.169.588 1.802 2.982 5.402 5.533 5.402h15.583q.266-.001.565-.056a38.4 38.4 0 0 1-3.544 4.158zm-43.252 9.946a3.107 3.107 0 0 1-3.691-2.389 3.115 3.115 0 0 1 2.386-3.699 3.114 3.114 0 0 1 1.305 6.088M37.6 58.91a3.114 3.114 0 0 1-1.581 4.107 3.106 3.106 0 0 1-4.101-1.584 3.114 3.114 0 0 1 1.581-4.107A3.106 3.106 0 0 1 37.6 58.91m-3.646 8.643 6.695-2.975a2.84 2.84 0 0 0 1.441-3.744l-1.379-3.118h5.423V82.16H35.193a38.3 38.3 0 0 1-1.458-10.496q.002-2.085.219-4.111m29.38-2.374v-7.205h12.914c.667 0 4.71.771 4.71 3.794 0 2.51-3.101 3.41-5.651 3.41H63.334zm46.932 6.485q0 1.433-.105 2.841h-3.926c-.393 0-.551.258-.551.643v1.803c0 4.244-2.393 5.167-4.49 5.402-1.997.225-4.211-.836-4.484-2.058-1.178-6.626-3.141-8.041-6.241-10.486 3.847-2.443 7.85-6.047 7.85-10.871 0-5.209-3.571-8.49-6.005-10.099-3.415-2.251-7.196-2.702-8.216-2.702H43.495c5.506-6.145 12.968-10.498 21.408-12.082l4.786 5.021a2.83 2.83 0 0 0 4.006.092l5.355-5.122c11.221 2.089 20.721 9.074 26.196 18.657l-3.666 8.28a2.84 2.84 0 0 0 1.442 3.744l7.058 3.135q.185 1.879.186 3.802m-40.575-41.88a3.105 3.105 0 0 1 4.394.101 3.115 3.115 0 0 1-.103 4.401 3.103 3.103 0 0 1-4.394-.102 3.116 3.116 0 0 1 .103-4.4m36.38 29.277a3.105 3.105 0 0 1 4.1-1.583 3.114 3.114 0 0 1 1.581 4.107 3.105 3.105 0 0 1-4.101 1.584 3.117 3.117 0 0 1-1.58-4.108"/></svg>