<svg xmlns="http://www.w3.org/2000/svg" xml:space="preserve" id="Layer_1" x="0" y="0" viewBox="0 0 500 500"><style>.st1{fill:#fff}</style><g id="XMLID_1_"><path id="XMLID_2_" d="M67.5 250v182.5h365v-365h-365z" style="fill:#007acc"/><path id="XMLID_3_" d="m148.2 251.2-.1 14.9h47.6v135h33.6v-135h47.5v-14.7c0-8.1-.2-14.9-.4-15.1s-29.1-.3-64.1-.3l-63.8.2z" class="st1"/><path id="XMLID_4_" d="M362 235.9c9.3 2.3 16.3 6.4 22.8 13.2 3.4 3.6 8.3 10.1 8.7 11.7.1.5-15.8 11.1-25.4 17.1-.3.2-1.7-1.3-3.3-3.6-4.7-6.8-9.6-9.8-17.1-10.3-11.1-.8-18.2 5-18.1 14.7 0 2.8.4 4.5 1.6 6.8 2.4 5 7 8.1 21.1 14.2 26.1 11.2 37.3 18.7 44.3 29.2 7.8 11.8 9.5 30.5 4.2 44.5-5.8 15.2-20.2 25.5-40.4 28.9-6.3 1.1-21.1.9-27.8-.3-14.7-2.6-28.6-9.8-37.1-19.4-3.4-3.7-9.9-13.4-9.5-14.1.2-.2 1.7-1.2 3.4-2.1 1.6-.9 7.8-4.5 13.6-7.8l10.5-6.1 2.2 3.2c3.1 4.7 9.8 11.1 13.8 13.3 11.6 6.1 27.6 5.3 35.5-1.8 3.4-3.1 4.8-6.3 4.8-10.9 0-4.2-.5-6.1-2.7-9.3-2.8-4.1-8.6-7.5-25.1-14.6-18.8-8.1-26.9-13.2-34.4-21.1-4.3-4.6-8.3-12.1-10-18.2-1.4-5.2-1.7-18.1-.6-23.3 3.9-18.2 17.6-30.9 37.4-34.6 6.4-1.3 21.3-.9 27.6.7" class="st1"/></g></svg>